{
	"asset":{
		"generator":"Khronos glTF Blender I/O v4.4.55",
		"version":"2.0"
	},
	"scene":0,
	"scenes":[
		{
			"name":"Scene",
			"nodes":[
				8
			]
		}
	],
	"nodes":[
		{
			"name":"wooker",
			"rotation":[
				5.338508302088485e-08,
				0.7071066498756409,
				0.70710688829422,
				5.3385068810030134e-08
			],
			"translation":[
				0,
				0.43575936555862427,
				0
			]
		},
		{
			"name":"tweeter",
			"rotation":[
				5.338507591545749e-08,
				0.7071067690849304,
				0.7071067690849304,
				5.338507591545749e-08
			],
			"translation":[
				0,
				0.7344650030136108,
				0
			]
		},
		{
			"children":[
				1
			],
			"name":"tweeter_parent",
			"translation":[
				0,
				0.43575936555862427,
				0
			]
		},
		{
			"children":[
				0,
				2
			],
			"name":"body",
			"translation":[
				0,
				0.3297756314277649,
				0
			]
		},
		{
			"children":[
				3
			],
			"name":"root"
		},
		{
			"mesh":0,
			"name":"Speaker_body",
			"skin":0
		},
		{
			"mesh":1,
			"name":"Speaker_Tweeter.001",
			"skin":0
		},
		{
			"mesh":2,
			"name":"Speaker_Wooker.001",
			"skin":0
		},
		{
			"children":[
				5,
				6,
				7,
				4
			],
			"name":"\u30a2\u30fc\u30de\u30c1\u30e5\u30a2.001"
		}
	],
	"animations":[
		{
			"channels":[
				{
					"sampler":0,
					"target":{
						"node":4,
						"path":"translation"
					}
				},
				{
					"sampler":1,
					"target":{
						"node":4,
						"path":"rotation"
					}
				},
				{
					"sampler":2,
					"target":{
						"node":4,
						"path":"scale"
					}
				},
				{
					"sampler":3,
					"target":{
						"node":3,
						"path":"translation"
					}
				},
				{
					"sampler":4,
					"target":{
						"node":3,
						"path":"rotation"
					}
				},
				{
					"sampler":5,
					"target":{
						"node":3,
						"path":"scale"
					}
				},
				{
					"sampler":6,
					"target":{
						"node":0,
						"path":"translation"
					}
				},
				{
					"sampler":7,
					"target":{
						"node":0,
						"path":"rotation"
					}
				},
				{
					"sampler":8,
					"target":{
						"node":0,
						"path":"scale"
					}
				},
				{
					"sampler":9,
					"target":{
						"node":2,
						"path":"translation"
					}
				},
				{
					"sampler":10,
					"target":{
						"node":2,
						"path":"rotation"
					}
				},
				{
					"sampler":11,
					"target":{
						"node":2,
						"path":"scale"
					}
				},
				{
					"sampler":12,
					"target":{
						"node":1,
						"path":"translation"
					}
				},
				{
					"sampler":13,
					"target":{
						"node":1,
						"path":"rotation"
					}
				},
				{
					"sampler":14,
					"target":{
						"node":1,
						"path":"scale"
					}
				},
				{
					"sampler":15,
					"target":{
						"node":8,
						"path":"translation"
					}
				},
				{
					"sampler":16,
					"target":{
						"node":8,
						"path":"scale"
					}
				},
				{
					"sampler":17,
					"target":{
						"node":8,
						"path":"rotation"
					}
				}
			],
			"name":"diaphragm_scale",
			"samplers":[
				{
					"input":22,
					"interpolation":"STEP",
					"output":23
				},
				{
					"input":22,
					"interpolation":"STEP",
					"output":24
				},
				{
					"input":22,
					"interpolation":"STEP",
					"output":25
				},
				{
					"input":22,
					"interpolation":"STEP",
					"output":26
				},
				{
					"input":22,
					"interpolation":"STEP",
					"output":27
				},
				{
					"input":22,
					"interpolation":"STEP",
					"output":28
				},
				{
					"input":22,
					"interpolation":"STEP",
					"output":29
				},
				{
					"input":22,
					"interpolation":"STEP",
					"output":30
				},
				{
					"input":31,
					"interpolation":"LINEAR",
					"output":32
				},
				{
					"input":22,
					"interpolation":"STEP",
					"output":33
				},
				{
					"input":22,
					"interpolation":"STEP",
					"output":34
				},
				{
					"input":22,
					"interpolation":"STEP",
					"output":35
				},
				{
					"input":22,
					"interpolation":"STEP",
					"output":36
				},
				{
					"input":22,
					"interpolation":"STEP",
					"output":37
				},
				{
					"input":31,
					"interpolation":"LINEAR",
					"output":38
				},
				{
					"input":22,
					"interpolation":"STEP",
					"output":39
				},
				{
					"input":22,
					"interpolation":"STEP",
					"output":40
				},
				{
					"input":22,
					"interpolation":"STEP",
					"output":41
				}
			]
		}
	],
	"materials":[
		{
			"doubleSided":true,
			"name":"bodyMaterial",
			"pbrMetallicRoughness":{
				"baseColorTexture":{
					"index":0
				},
				"metallicFactor":0,
				"roughnessFactor":0.5
			}
		},
		{
			"doubleSided":true,
			"name":"diaphragmMaterial",
			"pbrMetallicRoughness":{
				"baseColorTexture":{
					"index":1
				},
				"metallicFactor":0,
				"roughnessFactor":0.5
			}
		}
	],
	"meshes":[
		{
			"name":"ICO\u7403.002",
			"primitives":[
				{
					"attributes":{
						"POSITION":0,
						"NORMAL":1,
						"TEXCOORD_0":2,
						"COLOR_0":3,
						"COLOR_1":4,
						"COLOR_2":5,
						"JOINTS_0":6,
						"WEIGHTS_0":7
					},
					"indices":8,
					"material":0
				}
			]
		},
		{
			"name":"\u5186\u67f1.003",
			"primitives":[
				{
					"attributes":{
						"POSITION":10,
						"NORMAL":11,
						"TEXCOORD_0":12,
						"JOINTS_0":13,
						"WEIGHTS_0":14
					},
					"indices":15,
					"material":1
				}
			]
		},
		{
			"name":"\u5186\u67f1.004",
			"primitives":[
				{
					"attributes":{
						"POSITION":16,
						"NORMAL":17,
						"TEXCOORD_0":18,
						"JOINTS_0":19,
						"WEIGHTS_0":20
					},
					"indices":21,
					"material":1
				}
			]
		}
	],
	"textures":[
		{
			"sampler":0,
			"source":0
		},
		{
			"sampler":0,
			"source":1
		}
	],
	"images":[
		{
			"mimeType":"image/png",
			"name":"Speaker_body",
			"uri":"Speaker_body.png"
		},
		{
			"mimeType":"image/png",
			"name":"Speaker_Tweeter",
			"uri":"Speaker_Tweeter.png"
		}
	],
	"skins":[
		{
			"inverseBindMatrices":9,
			"joints":[
				4,
				3,
				0,
				2,
				1
			],
			"name":"\u30a2\u30fc\u30de\u30c1\u30e5\u30a2.001"
		}
	],
	"accessors":[
		{
			"bufferView":0,
			"componentType":5126,
			"count":939,
			"max":[
				0.6000000238418579,
				2.000000238418579,
				0.7129988670349121
			],
			"min":[
				-0.6000000238418579,
				-7.187992423496326e-08,
				-0.7000000476837158
			],
			"type":"VEC3"
		},
		{
			"bufferView":1,
			"componentType":5126,
			"count":939,
			"type":"VEC3"
		},
		{
			"bufferView":2,
			"componentType":5126,
			"count":939,
			"type":"VEC2"
		},
		{
			"bufferView":3,
			"componentType":5126,
			"count":939,
			"type":"VEC3"
		},
		{
			"bufferView":4,
			"componentType":5123,
			"count":939,
			"normalized":true,
			"type":"VEC4"
		},
		{
			"bufferView":5,
			"componentType":5123,
			"count":939,
			"normalized":true,
			"type":"VEC4"
		},
		{
			"bufferView":6,
			"componentType":5121,
			"count":939,
			"type":"VEC4"
		},
		{
			"bufferView":7,
			"componentType":5126,
			"count":939,
			"type":"VEC4"
		},
		{
			"bufferView":8,
			"componentType":5123,
			"count":1428,
			"type":"SCALAR"
		},
		{
			"bufferView":9,
			"componentType":5126,
			"count":5,
			"type":"MAT4"
		},
		{
			"bufferView":10,
			"componentType":5126,
			"count":221,
			"max":[
				0.1724712997674942,
				1.7165229320526123,
				0.7026523947715759
			],
			"min":[
				-0.1724712997674942,
				1.3715804815292358,
				0.41378143429756165
			],
			"type":"VEC3"
		},
		{
			"bufferView":11,
			"componentType":5126,
			"count":221,
			"type":"VEC3"
		},
		{
			"bufferView":12,
			"componentType":5126,
			"count":221,
			"type":"VEC2"
		},
		{
			"bufferView":13,
			"componentType":5121,
			"count":221,
			"type":"VEC4"
		},
		{
			"bufferView":14,
			"componentType":5126,
			"count":221,
			"type":"VEC4"
		},
		{
			"bufferView":15,
			"componentType":5123,
			"count":282,
			"type":"SCALAR"
		},
		{
			"bufferView":16,
			"componentType":5126,
			"count":170,
			"max":[
				0.33007192611694336,
				1.1500719785690308,
				0.6989825367927551
			],
			"min":[
				-0.3300718367099762,
				0.489928275346756,
				0.5192410945892334
			],
			"type":"VEC3"
		},
		{
			"bufferView":17,
			"componentType":5126,
			"count":170,
			"type":"VEC3"
		},
		{
			"bufferView":18,
			"componentType":5126,
			"count":170,
			"type":"VEC2"
		},
		{
			"bufferView":19,
			"componentType":5121,
			"count":170,
			"type":"VEC4"
		},
		{
			"bufferView":20,
			"componentType":5126,
			"count":170,
			"type":"VEC4"
		},
		{
			"bufferView":21,
			"componentType":5123,
			"count":282,
			"type":"SCALAR"
		},
		{
			"bufferView":22,
			"componentType":5126,
			"count":2,
			"max":[
				1
			],
			"min":[
				0.041666666666666664
			],
			"type":"SCALAR"
		},
		{
			"bufferView":23,
			"componentType":5126,
			"count":2,
			"type":"VEC3"
		},
		{
			"bufferView":24,
			"componentType":5126,
			"count":2,
			"type":"VEC4"
		},
		{
			"bufferView":25,
			"componentType":5126,
			"count":2,
			"type":"VEC3"
		},
		{
			"bufferView":26,
			"componentType":5126,
			"count":2,
			"type":"VEC3"
		},
		{
			"bufferView":27,
			"componentType":5126,
			"count":2,
			"type":"VEC4"
		},
		{
			"bufferView":28,
			"componentType":5126,
			"count":2,
			"type":"VEC3"
		},
		{
			"bufferView":29,
			"componentType":5126,
			"count":2,
			"type":"VEC3"
		},
		{
			"bufferView":30,
			"componentType":5126,
			"count":2,
			"type":"VEC4"
		},
		{
			"bufferView":31,
			"componentType":5126,
			"count":24,
			"max":[
				1
			],
			"min":[
				0.041666666666666664
			],
			"type":"SCALAR"
		},
		{
			"bufferView":32,
			"componentType":5126,
			"count":24,
			"type":"VEC3"
		},
		{
			"bufferView":33,
			"componentType":5126,
			"count":2,
			"type":"VEC3"
		},
		{
			"bufferView":34,
			"componentType":5126,
			"count":2,
			"type":"VEC4"
		},
		{
			"bufferView":35,
			"componentType":5126,
			"count":2,
			"type":"VEC3"
		},
		{
			"bufferView":36,
			"componentType":5126,
			"count":2,
			"type":"VEC3"
		},
		{
			"bufferView":37,
			"componentType":5126,
			"count":2,
			"type":"VEC4"
		},
		{
			"bufferView":38,
			"componentType":5126,
			"count":24,
			"type":"VEC3"
		},
		{
			"bufferView":39,
			"componentType":5126,
			"count":2,
			"type":"VEC3"
		},
		{
			"bufferView":40,
			"componentType":5126,
			"count":2,
			"type":"VEC3"
		},
		{
			"bufferView":41,
			"componentType":5126,
			"count":2,
			"type":"VEC4"
		}
	],
	"bufferViews":[
		{
			"buffer":0,
			"byteLength":11268,
			"byteOffset":0,
			"target":34962
		},
		{
			"buffer":0,
			"byteLength":11268,
			"byteOffset":11268,
			"target":34962
		},
		{
			"buffer":0,
			"byteLength":7512,
			"byteOffset":22536,
			"target":34962
		},
		{
			"buffer":0,
			"byteLength":11268,
			"byteOffset":30048,
			"target":34962
		},
		{
			"buffer":0,
			"byteLength":7512,
			"byteOffset":41316,
			"target":34962
		},
		{
			"buffer":0,
			"byteLength":7512,
			"byteOffset":48828,
			"target":34962
		},
		{
			"buffer":0,
			"byteLength":3756,
			"byteOffset":56340,
			"target":34962
		},
		{
			"buffer":0,
			"byteLength":15024,
			"byteOffset":60096,
			"target":34962
		},
		{
			"buffer":0,
			"byteLength":2856,
			"byteOffset":75120,
			"target":34963
		},
		{
			"buffer":0,
			"byteLength":320,
			"byteOffset":77976
		},
		{
			"buffer":0,
			"byteLength":2652,
			"byteOffset":78296,
			"target":34962
		},
		{
			"buffer":0,
			"byteLength":2652,
			"byteOffset":80948,
			"target":34962
		},
		{
			"buffer":0,
			"byteLength":1768,
			"byteOffset":83600,
			"target":34962
		},
		{
			"buffer":0,
			"byteLength":884,
			"byteOffset":85368,
			"target":34962
		},
		{
			"buffer":0,
			"byteLength":3536,
			"byteOffset":86252,
			"target":34962
		},
		{
			"buffer":0,
			"byteLength":564,
			"byteOffset":89788,
			"target":34963
		},
		{
			"buffer":0,
			"byteLength":2040,
			"byteOffset":90352,
			"target":34962
		},
		{
			"buffer":0,
			"byteLength":2040,
			"byteOffset":92392,
			"target":34962
		},
		{
			"buffer":0,
			"byteLength":1360,
			"byteOffset":94432,
			"target":34962
		},
		{
			"buffer":0,
			"byteLength":680,
			"byteOffset":95792,
			"target":34962
		},
		{
			"buffer":0,
			"byteLength":2720,
			"byteOffset":96472,
			"target":34962
		},
		{
			"buffer":0,
			"byteLength":564,
			"byteOffset":99192,
			"target":34963
		},
		{
			"buffer":0,
			"byteLength":8,
			"byteOffset":99756
		},
		{
			"buffer":0,
			"byteLength":24,
			"byteOffset":99764
		},
		{
			"buffer":0,
			"byteLength":32,
			"byteOffset":99788
		},
		{
			"buffer":0,
			"byteLength":24,
			"byteOffset":99820
		},
		{
			"buffer":0,
			"byteLength":24,
			"byteOffset":99844
		},
		{
			"buffer":0,
			"byteLength":32,
			"byteOffset":99868
		},
		{
			"buffer":0,
			"byteLength":24,
			"byteOffset":99900
		},
		{
			"buffer":0,
			"byteLength":24,
			"byteOffset":99924
		},
		{
			"buffer":0,
			"byteLength":32,
			"byteOffset":99948
		},
		{
			"buffer":0,
			"byteLength":96,
			"byteOffset":99980
		},
		{
			"buffer":0,
			"byteLength":288,
			"byteOffset":100076
		},
		{
			"buffer":0,
			"byteLength":24,
			"byteOffset":100364
		},
		{
			"buffer":0,
			"byteLength":32,
			"byteOffset":100388
		},
		{
			"buffer":0,
			"byteLength":24,
			"byteOffset":100420
		},
		{
			"buffer":0,
			"byteLength":24,
			"byteOffset":100444
		},
		{
			"buffer":0,
			"byteLength":32,
			"byteOffset":100468
		},
		{
			"buffer":0,
			"byteLength":288,
			"byteOffset":100500
		},
		{
			"buffer":0,
			"byteLength":24,
			"byteOffset":100788
		},
		{
			"buffer":0,
			"byteLength":24,
			"byteOffset":100812
		},
		{
			"buffer":0,
			"byteLength":32,
			"byteOffset":100836
		}
	],
	"samplers":[
		{
			"magFilter":9729,
			"minFilter":9987
		}
	],
	"buffers":[
		{
			"byteLength":100868,
			"uri":"Speaker.bin"
		}
	]
}
