{
	"asset":{
		"generator":"Khronos glTF Blender I/O v4.4.55",
		"version":"2.0"
	},
	"scene":0,
	"scenes":[
		{
			"name":"Scene",
			"nodes":[
				9
			]
		}
	],
	"nodes":[
		{
			"name":"Wooker",
			"rotation":[
				-3.220916511281757e-08,
				0.7162595987319946,
				0.6978339552879333,
				1.3946089438832132e-07
			],
			"scale":[
				1,
				1.0000003576278687,
				1.0000001192092896
			],
			"translation":[
				-8.854812020982715e-16,
				0.9999999403953552,
				-1.77635620412554e-15
			]
		},
		{
			"name":"Tweeter",
			"rotation":[
				0.7071067094802856,
				-3.17728705567788e-08,
				1.385430010714117e-07,
				0.7071068286895752
			],
			"translation":[
				3.0759401741284073e-21,
				1.4580339193344116,
				-3.552713678800501e-14
			]
		},
		{
			"children":[
				1
			],
			"name":"Tweeter_parent",
			"rotation":[
				8.881788432165989e-16,
				-6.179733120932222e-23,
				2.2934723491446004e-22,
				1
			],
			"translation":[
				-2.2698086424460833e-21,
				0.9999999403953552,
				-1.7763559923673032e-15
			]
		},
		{
			"children":[
				0,
				2
			],
			"name":"Box",
			"rotation":[
				-3.5527132552840273e-15,
				7.7941173515228e-08,
				-4.536552516099172e-22,
				1
			],
			"translation":[
				6.080214215661884e-23,
				0.6214760541915894,
				-3.552713678800501e-15
			]
		},
		{
			"children":[
				3
			],
			"name":"Root",
			"rotation":[
				-3.8359463161441454e-08,
				4.249036678061202e-08,
				-7.271917083218873e-16,
				1
			],
			"scale":[
				1,
				0.9999999403953552,
				0.9999999403953552
			]
		},
		{
			"name":"neutral_bone",
			"rotation":[
				-0.7071067690849304,
				0,
				0,
				0.7071067690849304
			]
		},
		{
			"mesh":0,
			"name":"Speaker_Accent",
			"skin":0
		},
		{
			"mesh":1,
			"name":"Speaker_Tweeter",
			"skin":0
		},
		{
			"mesh":2,
			"name":"Speaker_Wooker",
			"skin":0
		},
		{
			"children":[
				6,
				7,
				8,
				4,
				5
			],
			"name":"\u30a2\u30fc\u30de\u30c1\u30e5\u30a2",
			"scale":[
				0.5,
				0.5,
				0.5
			]
		}
	],
	"animations":[
		{
			"channels":[
				{
					"sampler":0,
					"target":{
						"node":4,
						"path":"translation"
					}
				},
				{
					"sampler":1,
					"target":{
						"node":4,
						"path":"rotation"
					}
				},
				{
					"sampler":2,
					"target":{
						"node":4,
						"path":"scale"
					}
				},
				{
					"sampler":3,
					"target":{
						"node":3,
						"path":"translation"
					}
				},
				{
					"sampler":4,
					"target":{
						"node":3,
						"path":"rotation"
					}
				},
				{
					"sampler":5,
					"target":{
						"node":3,
						"path":"scale"
					}
				},
				{
					"sampler":6,
					"target":{
						"node":0,
						"path":"translation"
					}
				},
				{
					"sampler":7,
					"target":{
						"node":0,
						"path":"rotation"
					}
				},
				{
					"sampler":8,
					"target":{
						"node":0,
						"path":"scale"
					}
				},
				{
					"sampler":9,
					"target":{
						"node":2,
						"path":"translation"
					}
				},
				{
					"sampler":10,
					"target":{
						"node":2,
						"path":"rotation"
					}
				},
				{
					"sampler":11,
					"target":{
						"node":2,
						"path":"scale"
					}
				},
				{
					"sampler":12,
					"target":{
						"node":1,
						"path":"translation"
					}
				},
				{
					"sampler":13,
					"target":{
						"node":1,
						"path":"rotation"
					}
				},
				{
					"sampler":14,
					"target":{
						"node":1,
						"path":"scale"
					}
				},
				{
					"sampler":15,
					"target":{
						"node":5,
						"path":"translation"
					}
				},
				{
					"sampler":16,
					"target":{
						"node":5,
						"path":"rotation"
					}
				},
				{
					"sampler":17,
					"target":{
						"node":5,
						"path":"scale"
					}
				}
			],
			"name":"animation",
			"samplers":[
				{
					"input":21,
					"interpolation":"STEP",
					"output":22
				},
				{
					"input":21,
					"interpolation":"STEP",
					"output":23
				},
				{
					"input":21,
					"interpolation":"STEP",
					"output":24
				},
				{
					"input":25,
					"interpolation":"LINEAR",
					"output":26
				},
				{
					"input":25,
					"interpolation":"LINEAR",
					"output":27
				},
				{
					"input":21,
					"interpolation":"LINEAR",
					"output":28
				},
				{
					"input":21,
					"interpolation":"LINEAR",
					"output":29
				},
				{
					"input":21,
					"interpolation":"LINEAR",
					"output":30
				},
				{
					"input":25,
					"interpolation":"LINEAR",
					"output":31
				},
				{
					"input":21,
					"interpolation":"LINEAR",
					"output":32
				},
				{
					"input":21,
					"interpolation":"LINEAR",
					"output":33
				},
				{
					"input":21,
					"interpolation":"STEP",
					"output":34
				},
				{
					"input":21,
					"interpolation":"LINEAR",
					"output":35
				},
				{
					"input":21,
					"interpolation":"LINEAR",
					"output":36
				},
				{
					"input":25,
					"interpolation":"LINEAR",
					"output":37
				},
				{
					"input":21,
					"interpolation":"STEP",
					"output":38
				},
				{
					"input":21,
					"interpolation":"STEP",
					"output":39
				},
				{
					"input":21,
					"interpolation":"STEP",
					"output":40
				}
			]
		}
	],
	"meshes":[
		{
			"name":"ICO\u7403.001",
			"primitives":[
				{
					"attributes":{
						"POSITION":0,
						"NORMAL":1,
						"TEXCOORD_0":2,
						"COLOR_0":3,
						"COLOR_1":4,
						"JOINTS_0":5,
						"WEIGHTS_0":6
					},
					"indices":7
				}
			]
		},
		{
			"name":"\u5186\u67f1.002",
			"primitives":[
				{
					"attributes":{
						"POSITION":9,
						"NORMAL":10,
						"TEXCOORD_0":11,
						"JOINTS_0":12,
						"WEIGHTS_0":13
					},
					"indices":14
				}
			]
		},
		{
			"name":"\u5186\u67f1.001",
			"primitives":[
				{
					"attributes":{
						"POSITION":15,
						"NORMAL":16,
						"TEXCOORD_0":17,
						"JOINTS_0":18,
						"WEIGHTS_0":19
					},
					"indices":20
				}
			]
		}
	],
	"skins":[
		{
			"inverseBindMatrices":8,
			"joints":[
				4,
				3,
				0,
				2,
				1,
				5
			],
			"name":"\u30a2\u30fc\u30de\u30c1\u30e5\u30a2"
		}
	],
	"accessors":[
		{
			"bufferView":0,
			"componentType":5126,
			"count":934,
			"max":[
				0.6000000238418579,
				2,
				0.7129988670349121
			],
			"min":[
				-0.6000000238418579,
				-2.3959978889820377e-08,
				-0.699999988079071
			],
			"type":"VEC3"
		},
		{
			"bufferView":1,
			"componentType":5126,
			"count":934,
			"type":"VEC3"
		},
		{
			"bufferView":2,
			"componentType":5126,
			"count":934,
			"type":"VEC2"
		},
		{
			"bufferView":3,
			"componentType":5123,
			"count":934,
			"normalized":true,
			"type":"VEC4"
		},
		{
			"bufferView":4,
			"componentType":5123,
			"count":934,
			"normalized":true,
			"type":"VEC4"
		},
		{
			"bufferView":5,
			"componentType":5121,
			"count":934,
			"type":"VEC4"
		},
		{
			"bufferView":6,
			"componentType":5126,
			"count":934,
			"type":"VEC4"
		},
		{
			"bufferView":7,
			"componentType":5123,
			"count":1440,
			"type":"SCALAR"
		},
		{
			"bufferView":8,
			"componentType":5126,
			"count":6,
			"type":"MAT4"
		},
		{
			"bufferView":9,
			"componentType":5126,
			"count":186,
			"max":[
				0.1724712997674942,
				1.7165225744247437,
				0.7026523351669312
			],
			"min":[
				-0.1724712997674942,
				1.3715801239013672,
				0.4137815535068512
			],
			"type":"VEC3"
		},
		{
			"bufferView":10,
			"componentType":5126,
			"count":186,
			"type":"VEC3"
		},
		{
			"bufferView":11,
			"componentType":5126,
			"count":186,
			"type":"VEC2"
		},
		{
			"bufferView":12,
			"componentType":5121,
			"count":186,
			"type":"VEC4"
		},
		{
			"bufferView":13,
			"componentType":5126,
			"count":186,
			"type":"VEC4"
		},
		{
			"bufferView":14,
			"componentType":5123,
			"count":282,
			"type":"SCALAR"
		},
		{
			"bufferView":15,
			"componentType":5126,
			"count":166,
			"max":[
				0.3300718665122986,
				1.1500718593597412,
				0.6989825367927551
			],
			"min":[
				-0.3300718367099762,
				0.48992815613746643,
				0.5192411541938782
			],
			"type":"VEC3"
		},
		{
			"bufferView":16,
			"componentType":5126,
			"count":166,
			"type":"VEC3"
		},
		{
			"bufferView":17,
			"componentType":5126,
			"count":166,
			"type":"VEC2"
		},
		{
			"bufferView":18,
			"componentType":5121,
			"count":166,
			"type":"VEC4"
		},
		{
			"bufferView":19,
			"componentType":5126,
			"count":166,
			"type":"VEC4"
		},
		{
			"bufferView":20,
			"componentType":5123,
			"count":282,
			"type":"SCALAR"
		},
		{
			"bufferView":21,
			"componentType":5126,
			"count":2,
			"max":[
				0.9583333333333334
			],
			"min":[
				0.041666666666666664
			],
			"type":"SCALAR"
		},
		{
			"bufferView":22,
			"componentType":5126,
			"count":2,
			"type":"VEC3"
		},
		{
			"bufferView":23,
			"componentType":5126,
			"count":2,
			"type":"VEC4"
		},
		{
			"bufferView":24,
			"componentType":5126,
			"count":2,
			"type":"VEC3"
		},
		{
			"bufferView":25,
			"componentType":5126,
			"count":23,
			"max":[
				0.9583333333333334
			],
			"min":[
				0.041666666666666664
			],
			"type":"SCALAR"
		},
		{
			"bufferView":26,
			"componentType":5126,
			"count":23,
			"type":"VEC3"
		},
		{
			"bufferView":27,
			"componentType":5126,
			"count":23,
			"type":"VEC4"
		},
		{
			"bufferView":28,
			"componentType":5126,
			"count":2,
			"type":"VEC3"
		},
		{
			"bufferView":29,
			"componentType":5126,
			"count":2,
			"type":"VEC3"
		},
		{
			"bufferView":30,
			"componentType":5126,
			"count":2,
			"type":"VEC4"
		},
		{
			"bufferView":31,
			"componentType":5126,
			"count":23,
			"type":"VEC3"
		},
		{
			"bufferView":32,
			"componentType":5126,
			"count":2,
			"type":"VEC3"
		},
		{
			"bufferView":33,
			"componentType":5126,
			"count":2,
			"type":"VEC4"
		},
		{
			"bufferView":34,
			"componentType":5126,
			"count":2,
			"type":"VEC3"
		},
		{
			"bufferView":35,
			"componentType":5126,
			"count":2,
			"type":"VEC3"
		},
		{
			"bufferView":36,
			"componentType":5126,
			"count":2,
			"type":"VEC4"
		},
		{
			"bufferView":37,
			"componentType":5126,
			"count":23,
			"type":"VEC3"
		},
		{
			"bufferView":38,
			"componentType":5126,
			"count":2,
			"type":"VEC3"
		},
		{
			"bufferView":39,
			"componentType":5126,
			"count":2,
			"type":"VEC4"
		},
		{
			"bufferView":40,
			"componentType":5126,
			"count":2,
			"type":"VEC3"
		}
	],
	"bufferViews":[
		{
			"buffer":0,
			"byteLength":11208,
			"byteOffset":0,
			"target":34962
		},
		{
			"buffer":0,
			"byteLength":11208,
			"byteOffset":11208,
			"target":34962
		},
		{
			"buffer":0,
			"byteLength":7472,
			"byteOffset":22416,
			"target":34962
		},
		{
			"buffer":0,
			"byteLength":7472,
			"byteOffset":29888,
			"target":34962
		},
		{
			"buffer":0,
			"byteLength":7472,
			"byteOffset":37360,
			"target":34962
		},
		{
			"buffer":0,
			"byteLength":3736,
			"byteOffset":44832,
			"target":34962
		},
		{
			"buffer":0,
			"byteLength":14944,
			"byteOffset":48568,
			"target":34962
		},
		{
			"buffer":0,
			"byteLength":2880,
			"byteOffset":63512,
			"target":34963
		},
		{
			"buffer":0,
			"byteLength":384,
			"byteOffset":66392
		},
		{
			"buffer":0,
			"byteLength":2232,
			"byteOffset":66776,
			"target":34962
		},
		{
			"buffer":0,
			"byteLength":2232,
			"byteOffset":69008,
			"target":34962
		},
		{
			"buffer":0,
			"byteLength":1488,
			"byteOffset":71240,
			"target":34962
		},
		{
			"buffer":0,
			"byteLength":744,
			"byteOffset":72728,
			"target":34962
		},
		{
			"buffer":0,
			"byteLength":2976,
			"byteOffset":73472,
			"target":34962
		},
		{
			"buffer":0,
			"byteLength":564,
			"byteOffset":76448,
			"target":34963
		},
		{
			"buffer":0,
			"byteLength":1992,
			"byteOffset":77012,
			"target":34962
		},
		{
			"buffer":0,
			"byteLength":1992,
			"byteOffset":79004,
			"target":34962
		},
		{
			"buffer":0,
			"byteLength":1328,
			"byteOffset":80996,
			"target":34962
		},
		{
			"buffer":0,
			"byteLength":664,
			"byteOffset":82324,
			"target":34962
		},
		{
			"buffer":0,
			"byteLength":2656,
			"byteOffset":82988,
			"target":34962
		},
		{
			"buffer":0,
			"byteLength":564,
			"byteOffset":85644,
			"target":34963
		},
		{
			"buffer":0,
			"byteLength":8,
			"byteOffset":86208
		},
		{
			"buffer":0,
			"byteLength":24,
			"byteOffset":86216
		},
		{
			"buffer":0,
			"byteLength":32,
			"byteOffset":86240
		},
		{
			"buffer":0,
			"byteLength":24,
			"byteOffset":86272
		},
		{
			"buffer":0,
			"byteLength":92,
			"byteOffset":86296
		},
		{
			"buffer":0,
			"byteLength":276,
			"byteOffset":86388
		},
		{
			"buffer":0,
			"byteLength":368,
			"byteOffset":86664
		},
		{
			"buffer":0,
			"byteLength":24,
			"byteOffset":87032
		},
		{
			"buffer":0,
			"byteLength":24,
			"byteOffset":87056
		},
		{
			"buffer":0,
			"byteLength":32,
			"byteOffset":87080
		},
		{
			"buffer":0,
			"byteLength":276,
			"byteOffset":87112
		},
		{
			"buffer":0,
			"byteLength":24,
			"byteOffset":87388
		},
		{
			"buffer":0,
			"byteLength":32,
			"byteOffset":87412
		},
		{
			"buffer":0,
			"byteLength":24,
			"byteOffset":87444
		},
		{
			"buffer":0,
			"byteLength":24,
			"byteOffset":87468
		},
		{
			"buffer":0,
			"byteLength":32,
			"byteOffset":87492
		},
		{
			"buffer":0,
			"byteLength":276,
			"byteOffset":87524
		},
		{
			"buffer":0,
			"byteLength":24,
			"byteOffset":87800
		},
		{
			"buffer":0,
			"byteLength":32,
			"byteOffset":87824
		},
		{
			"buffer":0,
			"byteLength":24,
			"byteOffset":87856
		}
	],
	"buffers":[
		{
			"byteLength":87880,
			"uri":"Speaker.bin"
		}
	]
}
