# Blender 4.4.0
# www.blender.org
mtllib mono_overFloor.mtl
o mono_floor
v 0.815615 1.666666 -0.865615
v 0.815615 -0.333333 -0.865615
v 0.815615 1.666666 0.865615
v 0.815615 -0.333332 0.865615
v -0.815615 1.666666 -0.865615
v -0.815615 -0.333333 -0.865615
v -0.815615 1.666666 0.865615
v -0.815615 -0.333333 0.865615
v -1.000000 1.666666 0.999999
v -1.000000 1.666670 -0.999999
v 1.000000 1.666666 0.999999
v 1.000000 1.666666 -0.999999
v -1.000000 -0.333333 -1.000000
v 1.000000 -0.333333 -1.000000
vn -0.0000 -0.0000 -1.0000
vn 1.0000 -0.0000 -0.0000
vn -1.0000 -0.0000 -0.0000
vn -0.0000 -0.0000 1.0000
vn -0.0000 1.0000 -0.0000
vt 0.663316 0.168292
vt 0.664539 0.414509
vt 0.141430 0.414509
vt 0.141430 0.168292
vt 0.664539 0.166441
vt 0.664539 0.416995
vt 0.141430 0.416995
vt 0.141430 0.166441
vt 0.663673 0.165219
vt 0.663673 0.418832
vt 0.141788 0.418832
vt 0.141788 0.165219
vt 0.665046 0.167441
vt 0.663823 0.416781
vt 0.141938 0.416781
vt 0.141938 0.167441
vt 0.094149 0.748737
vt 0.094149 0.998077
vt 0.006767 0.998077
vt 0.006767 0.748737
vt 0.094149 -0.001648
vt 0.094149 0.251965
vt 0.006767 0.251965
vt 0.006767 -0.001648
vt 0.094149 0.498183
vt 0.006767 0.498183
vt 0.992785 0.751838
vt 0.722671 0.751838
vt 0.722671 0.501283
vt 0.992785 0.501283
s 0
usemtl マテリアル
f 4/1/1 8/2/1 7/3/1 3/4/1
f 8/5/2 6/6/2 5/7/2 7/8/2
f 2/9/3 4/10/3 3/11/3 1/12/3
f 6/13/4 2/14/4 1/15/4 5/16/4
f 5/17/5 1/18/5 12/19/5 10/20/5
f 1/21/5 3/22/5 11/23/5 12/24/5
f 3/22/5 7/25/5 9/26/5 11/23/5
f 7/25/5 5/17/5 10/20/5 9/26/5
f 2/27/5 6/28/5 8/29/5 4/30/5
f 10/20/1 12/19/1 14/19/1 13/20/1
