# Blender 4.4.0
# www.blender.org
mtllib SpotLight.mtl
o lightCube
v -0.500000 -0.500000 0.500000
v -0.500000 0.500000 0.500000
v -0.500000 -0.500000 -0.500000
v -0.500000 0.500000 -0.500000
v 0.500000 -0.500000 0.500000
v 0.500000 0.500000 0.500000
v 0.500000 -0.500000 -0.500000
v 0.500000 0.500000 -0.500000
v 0.000000 0.297498 0.243109
v 0.058039 0.291781 0.243109
v 0.113847 0.274852 0.243109
v 0.165281 0.247360 0.243109
v 0.210363 0.210363 0.243109
v 0.247360 0.165281 0.243109
v 0.274852 0.113847 0.243109
v 0.291781 0.058039 0.243109
v 0.297498 0.000000 0.243109
v 0.291781 -0.058039 0.243109
v 0.274852 -0.113847 0.243109
v 0.247360 -0.165281 0.243109
v 0.210363 -0.210362 0.243109
v 0.165281 -0.247360 0.243109
v 0.113847 -0.274852 0.243109
v 0.058039 -0.291781 0.243109
v 0.000000 -0.297497 0.243109
v -0.058039 -0.291781 0.243109
v -0.113847 -0.274852 0.243109
v -0.165281 -0.247360 0.243109
v -0.210363 -0.210362 0.243109
v -0.247360 -0.165281 0.243109
v -0.274852 -0.113847 0.243109
v -0.291781 -0.058039 0.243109
v -0.297498 0.000000 0.243109
v -0.291781 0.058039 0.243109
v -0.274852 0.113847 0.243109
v -0.247360 0.165281 0.243109
v -0.210363 0.210363 0.243109
v -0.165281 0.247360 0.243109
v -0.113847 0.274852 0.243109
v -0.058039 0.291781 0.243109
v -0.235834 0.352950 0.500000
v -0.082814 0.416333 0.500000
v -0.162445 0.392177 0.500000
v 0.082814 0.416333 0.500000
v 0.235834 0.352950 0.500000
v 0.162445 0.392177 0.500000
v 0.000000 0.424489 0.500000
v 0.352950 -0.235834 0.500000
v 0.352950 0.235834 0.500000
v 0.424489 -0.000000 0.500000
v 0.416333 -0.082814 0.500000
v 0.416333 0.082814 0.500000
v 0.392177 -0.162445 0.500000
v 0.392177 0.162445 0.500000
v 0.300159 0.300159 0.500000
v -0.424489 -0.000000 0.500000
v -0.416333 0.082814 0.500000
v -0.416333 -0.082814 0.500000
v -0.352950 -0.235834 0.500000
v -0.352950 0.235834 0.500000
v -0.300159 -0.300159 0.500000
v -0.392177 -0.162445 0.500000
v -0.392177 0.162445 0.500000
v -0.300159 0.300159 0.500000
v -0.235834 -0.352950 0.500000
v -0.082814 -0.416333 0.500000
v -0.162445 -0.392177 0.500000
v 0.162445 -0.392177 0.500000
v 0.082814 -0.416333 0.500000
v 0.300159 -0.300159 0.500000
v 0.235834 -0.352950 0.500000
v 0.000000 -0.424489 0.500000
vn -1.0000 -0.0000 -0.0000
vn -0.0000 -0.0000 -1.0000
vn 1.0000 -0.0000 -0.0000
vn -0.0000 -1.0000 -0.0000
vn -0.0000 1.0000 -0.0000
vn -0.0000 -0.0000 1.0000
vn -0.0880 -0.8930 0.4414
vn -0.2605 -0.8587 0.4414
vn -0.4230 -0.7913 0.4414
vn -0.5692 -0.6936 0.4414
vn -0.6936 -0.5692 0.4414
vn -0.7913 -0.4230 0.4414
vn -0.8587 -0.2605 0.4414
vn -0.8930 -0.0880 0.4414
vn -0.8930 0.0880 0.4414
vn -0.8587 0.2605 0.4414
vn -0.7913 0.4230 0.4414
vn -0.6936 0.5692 0.4414
vn -0.5692 0.6936 0.4414
vn -0.4230 0.7913 0.4414
vn -0.2605 0.8587 0.4414
vn -0.0880 0.8930 0.4414
vn 0.0880 0.8930 0.4414
vn 0.2605 0.8587 0.4414
vn 0.4230 0.7913 0.4414
vn 0.5692 0.6936 0.4414
vn 0.6936 0.5692 0.4414
vn 0.7913 0.4230 0.4414
vn 0.8587 0.2605 0.4414
vn 0.8930 0.0880 0.4414
vn 0.8930 -0.0880 0.4414
vn 0.8587 -0.2605 0.4414
vn 0.7913 -0.4230 0.4414
vn 0.6936 -0.5692 0.4414
vn 0.5692 -0.6936 0.4414
vn 0.4230 -0.7913 0.4414
vn 0.2605 -0.8587 0.4414
vn 0.0880 -0.8930 0.4414
vt 0.250644 0.500000
vt 0.250644 0.250043
vt 0.500601 0.250043
vt 0.500601 0.500000
vt 0.750558 0.500000
vt 0.750558 0.749957
vt 0.500601 0.749957
vt 0.500601 0.999913
vt 0.250644 0.999913
vt 0.250644 0.749956
vt 0.500601 0.000087
vt 0.250644 0.000087
vt 0.200806 0.700081
vt 0.000087 0.750282
vt 0.000275 0.499198
vt 0.200865 0.549527
vt 0.184696 0.536439
vt 0.166446 0.526581
vt 0.146565 0.520510
vt 0.125824 0.518426
vt 0.105054 0.520389
vt 0.085035 0.526328
vt 0.066538 0.536068
vt 0.050304 0.549269
vt 0.036992 0.565430
vt 0.027115 0.583908
vt 0.021033 0.603974
vt 0.018960 0.624900
vt 0.020955 0.645837
vt 0.026963 0.665895
vt 0.036775 0.684319
vt 0.050033 0.700385
vt 0.066196 0.713470
vt 0.084474 0.723297
vt 0.104410 0.729307
vt 0.125216 0.731306
vt 0.146142 0.729283
vt 0.166201 0.723223
vt 0.184667 0.713368
vt 0.213982 0.683886
vt 0.223710 0.665455
vt 0.229749 0.645571
vt 0.231752 0.624835
vt 0.229777 0.604111
vt 0.223843 0.584110
vt 0.214161 0.565584
vt 0.076664 0.625170
vt 0.077503 0.634651
vt 0.080202 0.643816
vt 0.084576 0.652270
vt 0.090559 0.659704
vt 0.097935 0.665832
vt 0.106365 0.670320
vt 0.115557 0.672977
vt 0.125071 0.673763
vt 0.134543 0.672653
vt 0.143656 0.669672
vt 0.152268 0.665332
vt 0.159843 0.659372
vt 0.166094 0.652030
vt 0.170763 0.643587
vt 0.173577 0.634338
vt 0.174522 0.624713
vt 0.173543 0.615114
vt 0.170694 0.605923
vt 0.166208 0.597448
vt 0.160143 0.590028
vt 0.152690 0.583906
vt 0.144185 0.579419
vt 0.134992 0.576645
vt 0.125469 0.575752
vt 0.115884 0.576747
vt 0.106710 0.579635
vt 0.098277 0.584268
vt 0.090932 0.590473
vt 0.084970 0.598007
vt 0.080625 0.606574
vt 0.077704 0.615708
s 0
usemtl マテリアル
f 1/1/1 2/2/1 4/3/1 3/4/1
f 3/4/2 4/5/2 8/6/2 7/7/2
f 7/7/3 8/8/3 6/9/3 5/10/3
f 3/4/4 7/7/4 5/10/4 1/1/4
f 8/11/5 4/3/5 2/2/5 6/12/5
f 70/13/6 5/10/6 6/14/6 2/15/6 1/1/6 61/16/6 59/17/6 62/18/6 58/19/6 56/20/6 57/21/6 63/22/6 60/23/6 64/24/6 41/25/6 43/26/6 42/27/6 47/28/6 44/29/6 46/30/6 45/31/6 55/32/6 49/33/6 54/34/6 52/35/6 50/36/6 51/37/6 53/38/6 48/39/6
f 61/16/6 1/1/6 5/10/6 70/13/6 71/40/6 68/41/6 69/42/6 72/43/6 66/44/6 67/45/6 65/46/6
f 47/28/7 9/47/7 10/48/7 44/29/7
f 10/48/8 11/49/8 46/30/8 44/29/8
f 11/49/9 12/50/9 45/31/9 46/30/9
f 12/50/10 13/51/10 55/32/10 45/31/10
f 55/32/11 13/51/11 14/52/11 49/33/11
f 49/33/12 14/52/12 15/53/12 54/34/12
f 54/34/13 15/53/13 16/54/13 52/35/13
f 52/35/14 16/54/14 17/55/14 50/36/14
f 50/36/15 17/55/15 18/56/15 51/37/15
f 51/37/16 18/56/16 19/57/16 53/38/16
f 53/38/17 19/57/17 20/58/17 48/39/17
f 48/39/18 20/58/18 21/59/18 70/13/18
f 21/59/19 22/60/19 71/40/19 70/13/19
f 22/60/20 23/61/20 68/41/20 71/40/20
f 68/41/21 23/61/21 24/62/21 69/42/21
f 69/42/22 24/62/22 25/63/22 72/43/22
f 72/43/23 25/63/23 26/64/23 66/44/23
f 66/44/24 26/64/24 27/65/24 67/45/24
f 67/45/25 27/65/25 28/66/25 65/46/25
f 65/46/26 28/66/26 29/67/26 61/16/26
f 61/16/27 29/67/27 30/68/27 59/17/27
f 59/17/28 30/68/28 31/69/28 62/18/28
f 62/18/29 31/69/29 32/70/29 58/19/29
f 58/19/30 32/70/30 33/71/30 56/20/30
f 56/20/31 33/71/31 34/72/31 57/21/31
f 57/21/32 34/72/32 35/73/32 63/22/32
f 63/22/33 35/73/33 36/74/33 60/23/33
f 60/23/34 36/74/34 37/75/34 64/24/34
f 64/24/35 37/75/35 38/76/35 41/25/35
f 41/25/36 38/76/36 39/77/36 43/26/36
f 43/26/37 39/77/37 40/78/37 42/27/37
f 42/27/38 40/78/38 9/47/38 47/28/38
f 22/60/6 21/59/6 20/58/6 19/57/6 18/56/6 17/55/6 16/54/6 15/53/6 14/52/6 13/51/6 12/50/6 11/49/6 10/48/6 9/47/6 40/78/6 39/77/6 38/76/6 37/75/6 36/74/6 35/73/6 34/72/6 33/71/6 32/70/6 31/69/6 30/68/6 29/67/6 28/66/6 27/65/6 26/64/6 25/63/6 24/62/6 23/61/6
