# Blender 4.4.0
# www.blender.org
mtllib SpectrumBar.mtl
o barFrame
v 0.000000 1.155312 -1.000000
v 0.000000 8.662601 -1.000000
v 0.195090 1.155312 -0.980785
v 0.195090 8.662601 -0.980785
v 0.382683 1.155312 -0.923880
v 0.382683 8.662601 -0.923880
v 0.555570 1.155312 -0.831470
v 0.555570 8.662601 -0.831470
v 0.707107 1.155312 -0.707107
v 0.707107 8.662601 -0.707107
v 0.831470 1.155312 -0.555570
v 0.831470 8.662601 -0.555570
v 0.923880 1.155312 -0.382683
v 0.923880 8.662601 -0.382683
v 0.980785 1.155312 -0.195090
v 0.980785 8.662601 -0.195090
v 1.000000 1.155312 0.000000
v 1.000000 8.662601 0.000000
v 0.980785 1.155312 0.195090
v 0.980785 8.662601 0.195090
v 0.923880 1.155312 0.382683
v 0.923880 8.662601 0.382683
v 0.831470 1.155312 0.555570
v 0.831470 8.662601 0.555570
v 0.707107 1.155312 0.707107
v 0.707107 8.662601 0.707107
v 0.555570 1.155312 0.831470
v 0.555570 8.662601 0.831470
v 0.382683 1.155312 0.923880
v 0.382683 8.662601 0.923880
v 0.195090 1.155312 0.980785
v 0.195090 8.662601 0.980785
v 0.000000 1.155312 1.000000
v 0.000000 8.662601 1.000000
v -0.195090 1.155312 0.980785
v -0.195090 8.662601 0.980785
v -0.382683 1.155312 0.923880
v -0.382683 8.662601 0.923880
v -0.555570 1.155312 0.831470
v -0.555570 8.662601 0.831470
v -0.707107 1.155312 0.707107
v -0.707107 8.662601 0.707107
v -0.831470 1.155312 0.555570
v -0.831470 8.662601 0.555570
v -0.923880 1.155312 0.382683
v -0.923880 8.662601 0.382683
v -0.980785 1.155312 0.195090
v -0.980785 8.662601 0.195090
v -1.000000 0.029665 0.000000
v -1.000000 8.662601 0.000000
v -0.980785 1.155312 -0.195090
v -0.980785 8.662601 -0.195090
v -0.923880 1.155312 -0.382683
v -0.831470 1.155312 -0.555570
v -0.831470 8.662601 -0.555570
v -0.707107 1.155312 -0.707107
v -0.707107 8.662601 -0.707107
v -0.555570 1.155312 -0.831470
v -0.555570 8.662601 -0.831470
v -0.382683 1.155312 -0.923880
v -0.382683 8.662601 -0.923880
v -0.195090 1.155312 -0.980785
v -0.195090 8.662601 -0.980785
v 0.000000 0.018999 -1.000000
v 0.195090 0.018999 -0.980785
v 0.555570 0.018999 -0.831470
v 0.707107 0.018999 -0.707107
v 0.831470 0.018999 -0.555570
v 0.980785 0.018999 -0.195090
v 0.980785 0.018999 0.195090
v 0.831470 0.018999 0.555570
v 0.555570 0.018999 0.831470
v 0.195090 0.018999 0.980785
v 0.000000 0.018999 1.000000
v -0.195090 0.018999 0.980785
v -0.382683 0.018999 0.923880
v -0.555570 0.018999 0.831470
v -0.707107 0.018999 0.707107
v -0.831470 0.018999 0.555570
v -0.980785 0.018999 0.195090
v -0.980785 0.018999 -0.195090
v -0.923880 0.018999 -0.382683
v -0.831470 0.018999 -0.555570
v -0.707107 0.018999 -0.707107
v -0.382683 0.018999 -0.923880
v -0.195090 0.020606 -0.980785
v -0.555570 0.020606 -0.831470
v -0.803690 8.662601 -0.164726
v -0.923880 0.020606 0.382683
v -0.819362 8.662601 -0.005607
v -0.803690 8.662601 0.153512
v 0.308376 8.662601 0.747924
v 0.449385 8.662601 0.672553
v 0.382683 0.020606 0.923880
v 0.707107 0.020606 0.707107
v 0.572981 8.662601 0.571120
v 0.923880 0.020606 0.382683
v 1.000000 0.020606 0.000000
v 0.449385 8.662601 -0.683766
v -1.000000 1.155312 0.000000
v 0.923880 0.020606 -0.382683
v 0.308376 8.662601 -0.759138
v 0.382683 0.020606 -0.923880
v 0.195090 9.018998 -0.980785
v 0.000000 9.018998 -1.000000
v 0.382684 9.018998 -0.923880
v 0.555570 9.018998 -0.831470
v 0.707107 9.018998 -0.707107
v 0.831470 9.018998 -0.555570
v 0.923880 9.018998 -0.382683
v 0.980785 9.018998 -0.195090
v 1.000000 9.018998 0.000000
v 0.980785 9.018998 0.195090
v 0.923880 9.018998 0.382683
v 0.831470 9.018998 0.555570
v 0.707107 9.018998 0.707107
v 0.555570 9.018998 0.831470
v 0.382684 9.018998 0.923880
v 0.195090 9.018998 0.980785
v 0.000000 9.018998 1.000000
v -0.195090 9.018998 0.980785
v -0.382683 9.018998 0.923880
v -0.555570 9.018998 0.831470
v -0.707107 9.018998 0.707107
v -0.831470 9.018998 0.555570
v -0.923879 9.018998 0.382683
v -0.980785 9.018998 0.195090
v -1.000000 9.018998 0.000000
v -0.980785 9.018998 -0.195090
v -0.923879 9.018998 -0.382683
v -0.831470 9.018998 -0.555570
v -0.707107 9.018998 -0.707107
v -0.555570 9.018998 -0.831470
v -0.382683 9.018998 -0.923880
v -0.195090 9.018998 -0.980785
v -0.923879 8.668680 -0.382683
v 0.000000 8.662636 -0.812559
v 0.158522 8.662636 -0.796946
v 0.574566 8.662636 -0.574566
v 0.675618 8.662636 -0.451434
v 0.750707 8.662636 -0.310953
v 0.796946 8.662636 -0.158522
v 0.812559 8.662636 0.000000
v 0.796946 8.662636 0.158522
v 0.750707 8.662636 0.310953
v 0.675618 8.662636 0.451434
v 0.158522 8.662636 0.796946
v 0.000000 8.662636 0.812559
v -0.158522 8.662636 0.796946
v -0.310953 8.662636 0.750707
v -0.451434 8.662636 0.675618
v -0.574566 8.662636 0.574566
v -0.675618 8.662636 0.451434
v -0.750707 8.662636 0.310953
v -0.675618 8.662636 -0.451434
v -0.574566 8.662636 -0.574566
v -0.451434 8.662636 -0.675618
v -0.310953 8.662636 -0.750707
v -0.158522 8.662636 -0.796946
v -0.750706 8.667576 -0.310953
v -0.814019 1.161638 -0.000000
v 0.000000 1.152955 -0.814019
v 0.158807 1.152955 -0.798378
v 0.452245 1.152955 -0.676832
v 0.575598 1.152955 -0.575598
v 0.676832 1.152955 -0.452245
v 0.798378 1.152955 -0.158807
v 0.798378 1.152955 0.158807
v 0.676832 1.152955 0.452245
v 0.452245 1.152955 0.676832
v 0.158807 1.152955 0.798378
v 0.000000 1.152955 0.814019
v -0.158807 1.152955 0.798378
v -0.311512 1.152955 0.752055
v -0.452245 1.152955 0.676832
v -0.575598 1.152955 0.575598
v -0.676832 1.152955 0.452245
v -0.798378 1.152955 0.158807
v -0.798378 1.152955 -0.158807
v -0.752055 1.152955 -0.311512
v -0.676832 1.152955 -0.452245
v -0.575598 1.152955 -0.575598
v -0.311512 1.152955 -0.752055
v -0.158807 1.154264 -0.798378
v -0.452245 1.154264 -0.676832
v -0.752055 1.154264 0.311512
v 0.311512 1.154264 0.752055
v 0.575598 1.154264 0.575598
v 0.752055 1.154264 0.311512
v 0.814019 1.154264 -0.000000
v 0.752055 1.154264 -0.311512
v 0.311512 1.154264 -0.752055
vn -0.9569 -0.0000 0.2903
vn 0.2903 -0.0000 -0.9569
vn 0.4714 -0.0000 -0.8819
vn -0.9952 -0.0000 0.0980
vn 0.2903 -0.0000 0.9569
vn 0.8819 -0.0000 -0.4714
vn -0.7730 -0.0000 -0.6344
vn -0.4714 -0.0000 0.8819
vn 0.9569 -0.0000 0.2903
vn -0.0980 -0.0000 -0.9952
vn 0.0980 -0.0000 -0.9952
vn 0.6344 -0.0000 0.7730
vn 0.4714 -0.0000 0.8819
vn 0.7730 -0.0000 -0.6344
vn -0.8819 -0.0000 -0.4714
vn -0.2903 -0.0000 0.9569
vn 0.9952 -0.0000 0.0980
vn -0.2903 -0.0000 -0.9569
vn -0.8819 -0.0000 0.4714
vn 0.6344 -0.0000 -0.7730
vn -0.9952 -0.0000 -0.0980
vn -0.9569 -0.0000 -0.2903
vn -0.0980 -0.0000 0.9952
vn 0.9952 -0.0000 -0.0980
vn -0.4714 -0.0000 -0.8819
vn -0.7730 -0.0000 0.6344
vn 0.7730 -0.0000 0.6344
vn 0.8819 -0.0000 0.4714
vn -0.6344 -0.0000 0.7730
vn -0.6344 -0.0000 -0.7730
vn 0.9569 -0.0000 -0.2903
vn 0.0980 -0.0000 0.9952
vn 0.8219 0.0004 0.5696
vn -0.9808 -0.0000 -0.1951
vn 0.1823 -0.0003 -0.9832
vn 0.2117 0.0004 0.9773
vn 0.9952 0.0008 0.0980
vn 0.9952 0.0006 -0.0980
vn -0.4714 -0.0007 -0.8819
vn -0.6344 -0.0007 -0.7730
vn -0.4714 0.0006 0.8819
vn -0.2679 0.0003 0.9634
vn -0.0085 1.0000 0.0010
vn 0.7096 -0.0001 -0.7046
vn -0.9225 -0.0001 0.3859
vn -0.0003 -1.0000 -0.0002
vn -0.0014 -1.0000 -0.0004
vn -0.0001 -1.0000 -0.0000
vn 0.0001 -1.0000 -0.0001
vn -0.0000 1.0000 -0.0000
vn 0.0004 1.0000 0.0001
vn 0.0058 1.0000 0.0081
vn 0.0043 0.9999 -0.0091
vn -0.0004 -1.0000 -0.0001
vt 0.000000 0.000000
vt 0.968750 0.500000
vt 0.968750 1.000000
vt 0.937500 1.000000
vt 0.937500 0.500000
vt 0.906250 1.000000
vt 0.906250 0.500000
vt 0.281250 0.500000
vt 0.250000 0.500000
vt 0.625000 0.500000
vt 0.625000 1.000000
vt 0.593750 1.000000
vt 0.593750 0.500000
vt 0.562500 1.000000
vt 0.562500 0.500000
vt 0.281250 1.000000
vt 0.250000 1.000000
vt 0.218750 1.000000
vt 0.218750 0.500000
vt 0.919706 0.419706
vt 0.949553 0.383337
vt 0.971731 0.341844
vt 0.985388 0.296822
vt 0.990000 0.250000
vt 0.985388 0.203178
vt 0.971731 0.158156
vt 0.949553 0.116663
vt 0.919706 0.080294
vt 0.296822 0.485388
vt 0.341844 0.471731
vt 0.383337 0.449553
vt 0.419706 0.419706
vt 0.449553 0.383337
vt 0.471731 0.341844
vt 0.485388 0.296822
vt 0.490000 0.250000
vt 0.485388 0.203178
vt 0.471731 0.158156
vt 0.449553 0.116663
vt 0.419706 0.080294
vt 0.383337 0.050447
vt 0.341844 0.028269
vt 0.296822 0.014612
vt 0.250000 0.010000
vt 0.203178 0.014612
vt 0.158156 0.028269
vt 0.116663 0.050447
vt 0.080294 0.080294
vt 0.050447 0.116663
vt 0.028269 0.158156
vt 0.014612 0.203178
vt 0.010000 0.250000
vt 0.014612 0.296822
vt 0.028269 0.341844
vt 0.050447 0.383337
vt 0.080294 0.419706
vt 0.116663 0.449553
vt 0.158156 0.471731
vt 0.203178 0.485388
vt 0.250000 0.490000
vt 0.750000 0.490000
vt 0.703178 0.485388
vt 0.658156 0.471731
vt 0.616663 0.449553
vt 0.580294 0.419706
vt 0.550447 0.383337
vt 0.528269 0.341844
vt 0.514612 0.296822
vt 0.510000 0.250000
vt 0.514612 0.203178
vt 0.528269 0.158156
vt 0.550447 0.116663
vt 0.580294 0.080294
vt 0.616663 0.050447
vt 0.658156 0.028269
vt 0.703178 0.014612
vt 0.750000 0.010000
vt 0.796822 0.014612
vt 0.841844 0.028269
vt 0.883337 0.050447
vt 0.883337 0.449553
vt 0.841844 0.471731
vt 0.796822 0.485388
s 0
usemtl body_Material
f 45/1/1 47/1/1 80/1/1 89/1/1
f 3/2/2 4/3/2 6/4/2 5/5/2
f 5/5/3 6/4/3 8/6/3 7/7/3
f 3/2/2 5/5/2 103/5/2 65/2/2
f 47/8/4 100/9/4 49/9/4 80/8/4
f 29/1/5 31/1/5 73/1/5 94/1/5
f 11/1/6 13/1/6 101/1/6 68/1/6
f 54/1/7 56/1/7 84/1/7 83/1/7
f 37/1/8 39/1/8 77/1/8 76/1/8
f 19/1/9 21/1/9 97/1/9 70/1/9
f 62/1/10 1/1/10 64/1/10 86/1/10
f 1/1/11 3/1/11 65/1/11 64/1/11
f 25/10/12 26/11/12 28/12/12 27/13/12
f 27/13/13 28/12/13 30/14/13 29/15/13
f 27/13/13 29/15/13 94/15/13 72/13/13
f 9/1/14 11/1/14 68/1/14 67/1/14
f 53/1/15 54/1/15 83/1/15 82/1/15
f 35/1/16 37/1/16 76/1/16 75/1/16
f 17/1/17 19/1/17 70/1/17 98/1/17
f 60/1/18 62/1/18 86/1/18 85/1/18
f 43/1/19 45/1/19 89/1/19 79/1/19
f 25/10/12 27/13/12 72/13/12 95/10/12
f 7/1/20 9/1/20 67/1/20 66/1/20
f 47/8/4 48/16/4 50/17/4 100/9/4
f 100/9/21 50/17/21 52/18/21 51/19/21
f 51/1/22 53/1/22 82/1/22 81/1/22
f 33/1/23 35/1/23 75/1/23 74/1/23
f 15/1/24 17/1/24 98/1/24 69/1/24
f 58/1/25 60/1/25 85/1/25 87/1/25
f 41/1/26 43/1/26 79/1/26 78/1/26
f 14/1/6 12/1/6 109/1/6 110/1/6
f 23/1/27 25/1/27 95/1/27 71/1/27
f 5/5/3 7/7/3 66/7/3 103/5/3
f 21/1/28 23/1/28 71/1/28 97/1/28
f 39/1/29 41/1/29 78/1/29 77/1/29
f 56/1/30 58/1/30 87/1/30 84/1/30
f 13/1/31 15/1/31 69/1/31 101/1/31
f 31/1/32 33/1/32 74/1/32 73/1/32
f 100/9/21 51/19/21 81/19/21 49/9/21
f 8/6/33 99/6/33 164/7/33 7/7/33
f 3/2/34 163/2/34 138/3/34 4/3/34
f 52/18/35 88/18/35 179/19/35 51/19/35
f 47/8/36 178/8/36 91/16/36 48/16/36
f 161/9/37 179/19/37 88/18/37 90/17/37
f 178/8/38 161/9/38 90/17/38 91/16/38
f 170/13/39 187/15/39 92/14/39 93/12/39
f 188/10/40 170/13/40 93/12/40 96/11/40
f 192/5/41 164/7/41 99/6/41 102/4/41
f 163/2/42 192/5/42 102/4/42 138/3/42
f 7/7/43 164/7/43 165/20/43 166/21/43 191/22/43 167/23/43 190/24/43 168/25/43 189/26/43 169/27/43 188/28/43 25/10/43 23/1/43 21/1/43 19/1/43 17/1/43 15/1/43 13/1/43 11/1/43 9/1/43
f 25/10/44 188/10/44 96/11/44 26/11/44
f 30/14/45 92/14/45 187/15/45 29/15/45
f 138/29/46 102/30/46 99/31/46 139/32/46 140/33/46 141/34/46 142/35/46 143/36/46 144/37/46 145/38/46 146/39/46 96/40/46 93/41/46 92/42/46 147/43/46 148/44/46 149/45/46 150/46/46 151/47/46 152/48/46 153/49/46 154/50/46 91/51/46 90/52/46 88/53/46 160/54/46 155/55/46 156/56/46 157/57/46 158/58/46 159/59/46 137/60/46
f 32/1/5 30/1/5 118/1/5 119/1/5
f 57/1/7 55/1/7 131/1/7 132/1/7
f 4/1/11 2/1/11 105/1/11 104/1/11
f 46/1/19 44/1/19 125/1/19 126/1/19
f 24/1/28 22/1/28 114/1/28 115/1/28
f 34/1/32 32/1/32 119/1/32 120/1/32
f 48/1/1 46/1/1 126/1/1 127/1/1
f 16/1/31 14/1/31 110/1/31 111/1/31
f 59/1/30 57/1/30 132/1/30 133/1/30
f 6/4/2 4/3/2 104/3/2 106/4/2
f 36/1/23 34/1/23 120/1/23 121/1/23
f 26/1/27 24/1/27 115/1/27 116/1/27
f 50/17/4 48/16/4 127/16/4 128/17/4
f 61/1/25 59/1/25 133/1/25 134/1/25
f 52/18/21 50/17/21 128/17/21 129/18/21
f 18/1/24 16/1/24 111/1/24 112/1/24
f 38/1/16 36/1/16 121/1/16 122/1/16
f 8/6/3 6/4/3 106/4/3 107/6/3
f 63/1/18 61/1/18 134/1/18 135/1/18
f 28/12/12 26/11/12 116/11/12 117/12/12
f 40/1/8 38/1/8 122/1/8 123/1/8
f 136/1/22 52/1/22 129/1/22 130/1/22
f 20/1/17 18/1/17 112/1/17 113/1/17
f 10/1/20 8/1/20 107/1/20 108/1/20
f 42/1/29 40/1/29 123/1/29 124/1/29
f 2/1/10 63/1/10 135/1/10 105/1/10
f 30/14/13 28/12/13 117/12/13 118/14/13
f 55/1/15 136/1/15 130/1/15 131/1/15
f 12/1/14 10/1/14 108/1/14 109/1/14
f 22/1/9 20/1/9 113/1/9 114/1/9
f 44/1/26 42/1/26 124/1/26 125/1/26
f 4/3/47 138/3/47 137/60/47 159/59/47 158/58/47 157/57/47 156/56/47 155/55/47 160/54/47 88/53/47 52/18/47 136/1/47 55/1/47 57/1/47 59/1/47 61/1/47 63/1/47 2/1/47
f 10/1/48 12/1/48 14/1/48 16/1/48 18/1/48 20/1/48 22/1/48 24/1/48 26/1/48 96/11/48 146/39/48 145/38/48 144/37/48 143/36/48 142/35/48 141/34/48 140/33/48 139/32/48 99/31/48 8/6/48
f 32/1/49 34/1/49 36/1/49 38/1/49 40/1/49 42/1/49 44/1/49 46/1/49 48/1/49 91/16/49 154/50/49 153/49/49 152/48/49 151/47/49 150/46/49 149/45/49 148/44/49 147/43/49 92/42/49 30/14/49
f 104/3/50 105/1/50 135/1/50 134/1/50 133/1/50 132/1/50 131/1/50 130/1/50 129/18/50 128/17/50 127/1/50 126/1/50 125/1/50 124/1/50 123/1/50 122/1/50 121/1/50 120/1/50 119/1/50 118/14/50 117/12/50 116/1/50 115/1/50 114/1/50 113/1/50 112/1/50 111/1/50 110/1/50 109/1/50 108/1/50 107/6/50 106/4/50
f 162/61/51 184/62/51 183/63/51 185/64/51 182/65/51 181/66/51 180/67/51 179/68/51 161/69/51 178/70/51 186/71/51 177/72/51 176/73/51 175/74/51 174/75/51 173/76/51 172/77/51 171/78/51 187/79/51 170/80/51 188/28/51 169/27/51 189/26/51 168/25/51 190/24/51 167/23/51 191/22/51 166/21/51 165/20/51 164/81/51 192/82/51 163/83/51
f 1/1/52 62/1/52 60/1/52 58/1/52 56/1/52 54/1/52 53/1/52 51/1/52 179/19/52 180/67/52 181/66/52 182/65/52 185/64/52 183/63/52 184/62/52 162/61/52 163/83/52 3/2/52
f 29/15/53 187/15/53 171/78/53 172/77/53 173/76/53 174/75/53 175/74/53 176/73/53 177/72/53 186/71/53 178/70/53 47/8/53 45/1/53 43/1/53 41/1/53 39/1/53 37/1/53 35/1/53 33/1/53 31/1/53
f 78/1/54 79/1/54 89/1/54 80/8/54 49/9/54 81/1/54 82/1/54 83/1/54 84/1/54 87/1/54 85/1/54 86/1/54 64/1/54 65/2/54 103/5/54 66/1/54 67/1/54 68/1/54 101/1/54 69/1/54 98/1/54 70/1/54 97/1/54 71/1/54 95/10/54 72/13/54 94/1/54 73/1/54 74/1/54 75/1/54 76/1/54 77/1/54
o bar
v 0.000000 1.040828 -0.564251
v 0.000000 8.770073 -0.564251
v 0.110080 1.040828 -0.553409
v 0.110080 8.770073 -0.553409
v 0.215930 1.040828 -0.521300
v 0.215930 8.770073 -0.521300
v 0.313481 1.040828 -0.469158
v 0.313481 8.770073 -0.469158
v 0.398986 1.040828 -0.398986
v 0.398986 8.770073 -0.398986
v 0.469158 1.040828 -0.313481
v 0.469158 8.770073 -0.313481
v 0.521300 1.040828 -0.215930
v 0.521300 8.770073 -0.215930
v 0.553409 1.040828 -0.110080
v 0.553409 8.770073 -0.110080
v 0.564251 1.040828 0.000000
v 0.564251 8.770073 0.000000
v 0.553409 1.040828 0.110080
v 0.553409 8.770073 0.110080
v 0.521300 1.040828 0.215930
v 0.521300 8.770073 0.215930
v 0.469158 1.040828 0.313481
v 0.469158 8.770073 0.313481
v 0.398986 1.040828 0.398986
v 0.398986 8.770073 0.398986
v 0.313481 1.040828 0.469158
v 0.313481 8.770073 0.469158
v 0.215930 1.040828 0.521300
v 0.215930 8.770073 0.521300
v 0.110080 1.040828 0.553409
v 0.110080 8.770073 0.553409
v 0.000000 1.040828 0.564251
v 0.000000 8.770073 0.564251
v -0.110080 1.040828 0.553409
v -0.110080 8.770073 0.553409
v -0.215930 1.040828 0.521300
v -0.215930 8.770073 0.521300
v -0.313481 1.040828 0.469158
v -0.313481 8.770073 0.469158
v -0.398986 1.040828 0.398986
v -0.398986 8.770073 0.398986
v -0.469158 1.040828 0.313481
v -0.469158 8.770073 0.313481
v -0.521300 1.040828 0.215930
v -0.521300 8.770073 0.215930
v -0.553409 1.040828 0.110080
v -0.553409 8.770073 0.110080
v -0.564251 1.040828 0.000000
v -0.564251 8.770073 0.000000
v -0.553409 1.040828 -0.110080
v -0.553409 8.770073 -0.110080
v -0.521300 1.040828 -0.215930
v -0.521300 8.770073 -0.215930
v -0.469158 1.040828 -0.313481
v -0.469158 8.770073 -0.313481
v -0.398986 1.040828 -0.398986
v -0.398986 8.770073 -0.398986
v -0.313481 1.040828 -0.469158
v -0.313481 8.770073 -0.469158
v -0.215930 1.040828 -0.521300
v -0.215930 8.770073 -0.521300
v -0.110080 1.040828 -0.553409
v -0.110080 8.770073 -0.553409
vn 0.0980 -0.0000 -0.9952
vn 0.2903 -0.0000 -0.9569
vn 0.4714 -0.0000 -0.8819
vn 0.6344 -0.0000 -0.7730
vn 0.7730 -0.0000 -0.6344
vn 0.8819 -0.0000 -0.4714
vn 0.9569 -0.0000 -0.2903
vn 0.9952 -0.0000 -0.0980
vn 0.9952 -0.0000 0.0980
vn 0.9569 -0.0000 0.2903
vn 0.8819 -0.0000 0.4714
vn 0.7730 -0.0000 0.6344
vn 0.6344 -0.0000 0.7730
vn 0.4714 -0.0000 0.8819
vn 0.2903 -0.0000 0.9569
vn 0.0980 -0.0000 0.9952
vn -0.0980 -0.0000 0.9952
vn -0.2903 -0.0000 0.9569
vn -0.4714 -0.0000 0.8819
vn -0.6344 -0.0000 0.7730
vn -0.7730 -0.0000 0.6344
vn -0.8819 -0.0000 0.4714
vn -0.9569 -0.0000 0.2903
vn -0.9952 -0.0000 0.0980
vn -0.9952 -0.0000 -0.0980
vn -0.9569 -0.0000 -0.2903
vn -0.8819 -0.0000 -0.4714
vn -0.7730 -0.0000 -0.6344
vn -0.6344 -0.0000 -0.7730
vn -0.4714 -0.0000 -0.8819
vn -0.0000 1.0000 -0.0000
vn -0.2903 -0.0000 -0.9569
vn -0.0980 -0.0000 -0.9952
vn -0.0000 -1.0000 -0.0000
vt 0.750000 0.490234
vt 0.750000 0.990234
vt 0.217914 0.968991
vt 0.184844 0.972248
vt 0.151773 0.968991
vt 0.119974 0.959344
vt 0.090667 0.943680
vt 0.064979 0.922599
vt 0.043898 0.896911
vt 0.028233 0.867604
vt 0.018587 0.835805
vt 0.015330 0.802734
vt 0.018587 0.769664
vt 0.028233 0.737864
vt 0.043898 0.708557
vt 0.064979 0.682870
vt 0.090667 0.661789
vt 0.119974 0.646124
vt 0.151773 0.636477
vt 0.184844 0.633220
vt 0.217914 0.636477
vt 0.249714 0.646124
vt 0.279021 0.661789
vt 0.304708 0.682870
vt 0.325789 0.708557
vt 0.341454 0.737864
vt 0.351101 0.769664
vt 0.354358 0.802734
vt 0.351101 0.835805
vt 0.341454 0.867604
vt 0.325789 0.896911
vt 0.304708 0.922599
vt 0.279021 0.943680
vt 0.249714 0.959344
vt 0.186250 0.618969
vt 0.220891 0.615557
vt 0.254200 0.605453
vt 0.284899 0.589045
vt 0.311806 0.566962
vt 0.333888 0.540055
vt 0.350297 0.509357
vt 0.360401 0.476047
vt 0.363813 0.441406
vt 0.360401 0.406765
vt 0.350297 0.373456
vt 0.333888 0.342757
vt 0.311806 0.315850
vt 0.284899 0.293768
vt 0.254200 0.277359
vt 0.220891 0.267255
vt 0.186250 0.263843
vt 0.151609 0.267255
vt 0.118299 0.277359
vt 0.087601 0.293768
vt 0.060694 0.315850
vt 0.038611 0.342757
vt 0.022203 0.373456
vt 0.012098 0.406765
vt 0.008687 0.441406
vt 0.012098 0.476047
vt 0.022203 0.509357
vt 0.038611 0.540055
vt 0.060694 0.566962
vt 0.087601 0.589045
vt 0.118299 0.605453
vt 0.151609 0.615557
s 0
usemtl bar_Material
f 193/84/55 194/85/55 196/85/55 195/84/55
f 195/84/56 196/85/56 198/85/56 197/84/56
f 197/84/57 198/85/57 200/85/57 199/84/57
f 199/84/58 200/85/58 202/85/58 201/84/58
f 201/84/59 202/85/59 204/85/59 203/84/59
f 203/84/60 204/85/60 206/85/60 205/84/60
f 205/84/61 206/85/61 208/85/61 207/84/61
f 207/84/62 208/85/62 210/85/62 209/84/62
f 209/84/63 210/85/63 212/85/63 211/84/63
f 211/84/64 212/85/64 214/85/64 213/84/64
f 213/84/65 214/85/65 216/85/65 215/84/65
f 215/84/66 216/85/66 218/85/66 217/84/66
f 217/84/67 218/85/67 220/85/67 219/84/67
f 219/84/68 220/85/68 222/85/68 221/84/68
f 221/84/69 222/85/69 224/85/69 223/84/69
f 223/84/70 224/85/70 226/85/70 225/84/70
f 225/84/71 226/85/71 228/85/71 227/84/71
f 227/84/72 228/85/72 230/85/72 229/84/72
f 229/84/73 230/85/73 232/85/73 231/84/73
f 231/84/74 232/85/74 234/85/74 233/84/74
f 233/84/75 234/85/75 236/85/75 235/84/75
f 235/84/76 236/85/76 238/85/76 237/84/76
f 237/84/77 238/85/77 240/85/77 239/84/77
f 239/84/78 240/85/78 242/85/78 241/84/78
f 241/84/79 242/85/79 244/85/79 243/84/79
f 243/84/80 244/85/80 246/85/80 245/84/80
f 245/84/81 246/85/81 248/85/81 247/84/81
f 247/84/82 248/85/82 250/85/82 249/84/82
f 249/84/83 250/85/83 252/85/83 251/84/83
f 251/84/84 252/85/84 254/85/84 253/84/84
f 196/86/85 194/87/85 256/88/85 254/89/85 252/90/85 250/91/85 248/92/85 246/93/85 244/94/85 242/95/85 240/96/85 238/97/85 236/98/85 234/99/85 232/100/85 230/101/85 228/102/85 226/103/85 224/104/85 222/105/85 220/106/85 218/107/85 216/108/85 214/109/85 212/110/85 210/111/85 208/112/85 206/113/85 204/114/85 202/115/85 200/116/85 198/117/85
f 253/84/86 254/85/86 256/85/86 255/84/86
f 255/84/87 256/85/87 194/85/87 193/84/87
f 193/118/88 195/119/88 197/120/88 199/121/88 201/122/88 203/123/88 205/124/88 207/125/88 209/126/88 211/127/88 213/128/88 215/129/88 217/130/88 219/131/88 221/132/88 223/133/88 225/134/88 227/135/88 229/136/88 231/137/88 233/138/88 235/139/88 237/140/88 239/141/88 241/142/88 243/143/88 245/144/88 247/145/88 249/146/88 251/147/88 253/148/88 255/149/88
